<svg width="24" height="24" viewBox="0 0 24 24" fill="none" xmlns="http://www.w3.org/2000/svg">
<path fill-rule="evenodd" clip-rule="evenodd" d="M24 12C24 18.6274 18.6274 24 12 24C5.37258 24 0 18.6274 0 12C0 5.37258 5.37258 0 12 0C18.6274 0 24 5.37258 24 12ZM7.74452 8.64276C8.48794 8.64276 9.0906 8.03323 9.0906 7.28134C9.0906 6.52945 8.48794 5.91992 7.74452 5.91992C7.0011 5.91992 6.39844 6.52945 6.39844 7.28134C6.39844 8.03323 7.0011 8.64276 7.74452 8.64276ZM10.3607 17.2292V9.67497H12.5865V10.708H12.6179C12.9274 10.1149 13.6841 9.48828 14.813 9.48828C17.1643 9.48828 17.5975 11.0521 17.5975 13.0871V17.2298H15.2775V13.5557C15.2775 12.6801 15.2627 11.5531 14.071 11.5531C12.8628 11.5531 12.6794 12.5077 12.6794 13.4935V17.2292H10.3607ZM8.90447 9.67497H6.58203V17.2292H8.90447V9.67497Z" fill="#171515"/>
</svg>
