<svg width="24" height="24" viewBox="0 0 24 24" fill="none" xmlns="http://www.w3.org/2000/svg">
<path fill-rule="evenodd" clip-rule="evenodd" d="M24 12C24 18.6274 18.6274 24 12 24C5.37258 24 0 18.6274 0 12C0 5.37258 5.37258 0 12 0C18.6274 0 24 5.37258 24 12ZM18.452 9.45829C18.4447 8.89464 18.3425 8.33659 18.1499 7.80911C17.983 7.36418 17.7279 6.96011 17.4012 6.62271C17.0744 6.28531 16.683 6.02199 16.2521 5.8496C15.7478 5.65413 15.215 5.54844 14.6764 5.53703C13.983 5.50502 13.7632 5.49609 12.003 5.49609C10.2428 5.49609 10.0172 5.49609 9.32884 5.53703C8.79052 5.54853 8.25799 5.65422 7.75391 5.8496C7.32291 6.02187 6.93149 6.28514 6.60469 6.62256C6.27789 6.95998 6.02291 7.36411 5.85605 7.80911C5.66636 8.32942 5.56422 8.87937 5.55404 9.43522C5.52304 10.1519 5.51367 10.3789 5.51367 12.1963C5.51367 14.0136 5.51367 14.2458 5.55404 14.9573C5.56485 15.514 5.66648 16.0632 5.85605 16.5849C6.02319 17.0297 6.27836 17.4337 6.60527 17.771C6.93218 18.1083 7.32364 18.3714 7.75463 18.5437C8.25733 18.747 8.78996 18.8602 9.32957 18.8785C10.0237 18.9106 10.2435 18.9202 12.0037 18.9202C13.7639 18.9202 13.9895 18.9202 14.6779 18.8785C15.2164 18.8676 15.7492 18.7622 16.2535 18.5667C16.6843 18.3941 17.0756 18.1307 17.4024 17.7934C17.7291 17.456 17.9842 17.052 18.1514 16.6072C18.341 16.0863 18.4426 15.537 18.4534 14.9796C18.4844 14.2637 18.4938 14.0367 18.4938 12.2186L18.4937 12.1937C18.4923 10.3991 18.4921 10.1672 18.452 9.45829ZM11.9987 15.633C10.1578 15.633 8.66643 14.0933 8.66643 12.1925C8.66643 10.2918 10.1578 8.75203 11.9987 8.75203C12.8824 8.75203 13.73 9.11451 14.3549 9.75973C14.9798 10.4049 15.3309 11.2801 15.3309 12.1925C15.3309 13.105 14.9798 13.9801 14.3549 14.6253C13.73 15.2706 12.8824 15.633 11.9987 15.633ZM15.4635 9.42703C15.3615 9.42713 15.2604 9.40645 15.1661 9.36616C15.0718 9.32588 14.9861 9.26679 14.9139 9.19227C14.8417 9.11776 14.7845 9.02928 14.7455 8.9319C14.7065 8.83452 14.6864 8.73015 14.6865 8.62477C14.6865 8.51946 14.7066 8.41519 14.7456 8.3179C14.7847 8.22061 14.8419 8.13221 14.914 8.05775C14.9861 7.98328 15.0717 7.92422 15.166 7.88392C15.2602 7.84362 15.3612 7.82288 15.4632 7.82288C15.5652 7.82288 15.6662 7.84362 15.7604 7.88392C15.8546 7.92422 15.9402 7.98328 16.0124 8.05775C16.0845 8.13221 16.1417 8.22061 16.1807 8.3179C16.2197 8.41519 16.2398 8.51946 16.2398 8.62477C16.2398 9.06832 15.8924 9.42703 15.4635 9.42703ZM14.163 12.1929C14.163 13.4272 13.1939 14.4278 11.9985 14.4278C10.803 14.4278 9.83393 13.4272 9.83393 12.1929C9.83393 10.9586 10.803 9.95801 11.9985 9.95801C13.1939 9.95801 14.163 10.9586 14.163 12.1929Z" fill="#171515"/>
</svg>
