<svg width="24" height="24" viewBox="0 0 24 24" fill="none" xmlns="http://www.w3.org/2000/svg">
<path fill-rule="evenodd" clip-rule="evenodd" d="M12 24C18.6274 24 24 18.6274 24 12C24 5.37258 18.6274 0 12 0C5.37258 0 0 5.37258 0 12C0 18.6274 5.37258 24 12 24ZM12.6774 12.553V18.9474H10.1231V12.5483H8V10.0447H10.1185V8.20736C10.1185 6.07042 11.4126 4.90638 13.2974 4.90638C13.9329 4.90388 14.5681 4.93696 15.2 5.00547V7.23759H13.9013C12.8763 7.23759 12.6774 7.73223 12.6774 8.45468V10.0494H15.1267L14.8097 12.553H12.6774Z" fill="#171515"/>
</svg>
