<svg width="24" height="24" viewBox="0 0 24 24" fill="none" xmlns="http://www.w3.org/2000/svg">
<path fill-rule="evenodd" clip-rule="evenodd" d="M12 24C18.6274 24 24 18.6274 24 12C24 5.37258 18.6274 0 12 0C5.37258 0 0 5.37258 0 12C0 18.6274 5.37258 24 12 24ZM16.4552 10.5413C16.4552 10.441 16.4552 10.3406 16.4478 10.2397C16.8954 9.90786 17.2845 9.50183 17.5984 9.03882C17.1781 9.22472 16.7326 9.34599 16.2768 9.39858C16.7559 9.11037 17.1148 8.65532 17.2861 8.11867C16.8362 8.38931 16.3433 8.5791 15.8294 8.67964C15.4099 8.22648 14.8132 7.94629 14.1521 7.94629C13.8506 7.94614 13.5521 8.0061 13.2735 8.12275C12.9949 8.23941 12.7418 8.41046 12.5286 8.62613C12.3154 8.8418 12.1463 9.09787 12.031 9.37969C11.9156 9.66151 11.8564 9.96356 11.8565 10.2686C11.8565 10.4484 11.8782 10.6277 11.9135 10.8007C11.0003 10.7536 10.107 10.5129 9.29152 10.0943C8.47607 9.67564 7.75663 9.08841 7.17979 8.37062C6.98089 8.71539 6.86748 9.11089 6.86748 9.54213C6.86709 9.92487 6.96035 10.3018 7.13895 10.6392C7.31755 10.9766 7.57593 11.264 7.89105 11.4758C7.5149 11.4614 7.15984 11.3536 6.8538 11.1812V11.21C6.85306 11.7466 7.03604 12.2668 7.37164 12.6823C7.70723 13.0978 8.17473 13.3829 8.69463 13.4891C8.50257 13.5392 8.29569 13.5681 8.08995 13.5681C7.94063 13.5681 7.79815 13.5537 7.65624 13.5323C7.80373 13.9935 8.08989 14.3966 8.47478 14.6852C8.85966 14.9739 9.32405 15.1338 9.80311 15.1426C8.99021 15.7878 7.98622 16.1373 6.95297 16.1348C6.7609 16.1348 6.58309 16.1273 6.39844 16.106C7.41517 16.7678 8.62339 17.1489 9.92393 17.1489C14.1453 17.1489 16.4552 13.6113 16.4552 10.5413Z" fill="#171515"/>
</svg>
