<svg width="169" height="24" viewBox="0 0 169 24" fill="none" xmlns="http://www.w3.org/2000/svg">
<path d="M2.81536 3.13987V10.2253H5.39429C7.75831 10.2253 9.4469 10.1926 10.458 10.1292V12.5455C9.4469 12.4801 7.76036 12.4494 5.39429 12.4494H2.81536V21.0169H5.68493C8.37234 21.0169 10.2103 20.9842 11.1989 20.9208V23.3371C10.2103 23.2717 8.37234 23.2411 5.68493 23.2411H0.0419922C0.127956 20.8575 0.17094 18.9154 0.17094 17.4108V6.75003C0.17094 4.19471 0.127956 2.26289 0.0419922 0.95252H5.42704C7.74808 0.95252 9.57584 0.909589 10.9083 0.82373V3.27071C10.0261 3.18485 8.20041 3.14192 5.42704 3.14192H2.81536V3.13987Z" fill="black"/>
<path d="M23.4856 23.2368C23.549 22.2269 23.5818 20.3605 23.5818 17.6335V12.899L18.3912 5.13488C17.2306 3.44019 16.2093 2.04396 15.3271 0.948242H18.7453C19.1116 1.67804 19.7236 2.69813 20.5833 4.0085L25.0002 10.546L29.192 4.23336C30.1806 2.7942 30.858 1.70053 31.2244 0.948242H34.4481C33.6519 1.93562 32.5876 3.4177 31.2551 5.39246L26.2241 12.8969V17.6314C26.2241 20.0355 26.2671 21.9039 26.3531 23.2347H23.4856V23.2368Z" fill="black"/>
<path d="M41.3495 3.13987V10.2253H43.9285C46.2925 10.2253 47.9811 10.1926 48.9922 10.1292V12.5455C47.9811 12.4801 46.2945 12.4494 43.9285 12.4494H41.3495V21.0169H44.2191C46.9065 21.0169 48.7445 20.9842 49.7331 20.9208V23.3371C48.7445 23.2717 46.9065 23.2411 44.2191 23.2411H38.5762C38.6621 20.8575 38.7051 18.9154 38.7051 17.4108V6.75003C38.7051 4.19471 38.6621 2.26289 38.5762 0.95252H43.9612C46.2823 0.95252 48.11 0.909589 49.4425 0.82373V3.27071C48.5603 3.18485 46.7346 3.14192 43.9612 3.14192H41.3495V3.13987Z" fill="black"/>
<path d="M56.5693 12.0915C56.5693 14.6244 57.4822 16.7933 59.3099 18.5984C61.1377 20.4014 63.3625 21.3029 65.9844 21.3029C68.4999 21.3029 70.4669 20.6917 71.8853 19.4672V22.5275C71.0891 22.7646 70.4443 22.9465 69.9511 23.0753C69.4558 23.2041 68.8335 23.3227 68.0803 23.429C67.3271 23.5353 66.5657 23.5905 65.79 23.5905C63.5754 23.5905 61.5491 23.0753 59.7111 22.045C57.8731 21.0147 56.4383 19.6185 55.4067 17.8584C54.3752 16.0983 53.8594 14.1767 53.8594 12.0936C53.8594 9.99003 54.3752 8.05207 55.4067 6.2797C56.4383 4.50733 57.8731 3.10702 59.7111 2.07671C61.5491 1.04641 63.5754 0.53125 65.79 0.53125C66.3917 0.53125 66.9935 0.568047 67.5952 0.643685C68.197 0.719322 68.6759 0.79905 69.03 0.884909C69.3841 0.970768 69.8467 1.0832 70.4157 1.22221C70.9847 1.36122 71.3981 1.46343 71.6581 1.52885V4.65247C70.2397 3.49338 68.3362 2.91281 65.9496 2.91281C64.2303 2.91281 62.6502 3.32166 61.2093 4.13732C59.7684 4.95298 58.6345 6.06506 57.8076 7.47151C56.9827 8.87795 56.5693 10.4173 56.5693 12.0915Z" fill="black"/>
<path d="M78.787 20.982H82.6882C85.1812 20.982 86.9229 20.9493 87.9115 20.8859V23.3656C86.5996 23.2797 84.8578 23.2368 82.6882 23.2368H76.0137C76.0996 20.8532 76.1426 18.9111 76.1426 17.4066V6.77846C76.1426 4.2027 76.0996 2.25861 76.0137 0.948242H78.8832C78.8177 2.90255 78.787 4.8446 78.787 6.77846V20.982Z" fill="black"/>
<path d="M122.609 6.16726C122.609 6.79076 122.764 7.36928 123.076 7.90692C123.387 8.44456 123.79 8.91065 124.285 9.30724C124.781 9.70382 125.327 10.1025 125.931 10.499C126.533 10.8956 127.134 11.3147 127.736 11.7542C128.338 12.1937 128.886 12.6619 129.382 13.1545C129.877 13.6492 130.278 14.2605 130.591 14.9903C130.902 15.7201 131.058 16.5153 131.058 17.3739C131.058 19.2628 130.434 20.7939 129.187 21.9632C127.941 23.1346 126.318 23.7192 124.318 23.7192C123.694 23.7192 123.098 23.6763 122.529 23.5905C121.96 23.5046 121.362 23.386 120.74 23.2368C120.116 23.0876 119.612 22.9792 119.226 22.9138V19.2096C119.633 19.8965 120.323 20.4709 121.289 20.9329C122.257 21.3949 123.288 21.6259 124.383 21.6259C125.566 21.6259 126.5 21.26 127.19 20.5302C127.877 19.8004 128.221 18.856 128.221 17.6969C128.221 17.1388 128.102 16.6134 127.867 16.1187C127.63 15.626 127.319 15.1967 126.932 14.8308C126.545 14.4669 126.099 14.101 125.593 13.7351C125.088 13.3712 124.578 13.0257 124.062 12.7048C123.546 12.3818 123.041 12.0118 122.545 11.5927C122.05 11.1736 121.604 10.7403 121.207 10.2885C120.81 9.8367 120.493 9.28475 120.255 8.63059C120.018 7.97643 119.901 7.26093 119.901 6.48821C119.901 4.61975 120.499 3.15402 121.69 2.09305C122.881 1.03208 124.437 0.498535 126.35 0.498535C127.016 0.498535 127.806 0.594615 128.721 0.788819C129.633 0.983024 130.221 1.08933 130.479 1.11181V4.6218C130.178 3.93493 129.662 3.41978 128.931 3.07634C128.201 2.73291 127.341 2.56119 126.352 2.56119C125.235 2.56119 124.332 2.87805 123.645 3.51177C122.953 4.14344 122.609 5.02861 122.609 6.16726Z" fill="black"/>
<path d="M137.957 3.13987V10.2253H140.536C142.9 10.2253 144.589 10.1926 145.6 10.1292V12.5455C144.589 12.4801 142.902 12.4494 140.536 12.4494H137.957V21.0169H140.827C143.514 21.0169 145.352 20.9842 146.341 20.9208V23.3371C145.352 23.2717 143.514 23.2411 140.827 23.2411H135.184C135.27 20.8575 135.313 18.9154 135.313 17.4108V6.75003C135.313 4.19471 135.27 2.26289 135.184 0.95252H140.569C142.89 0.95252 144.717 0.909589 146.05 0.82373V3.27071C145.168 3.18485 143.342 3.14192 140.569 3.14192H137.957V3.13987Z" fill="black"/>
<path d="M156.048 0.948131H163.367C166.118 0.948131 167.999 0.915423 169.01 0.852051V3.26836C167.655 3.1825 165.774 3.13958 163.367 3.13958H161.077C161.055 3.93479 161.044 5.32897 161.044 7.32621V17.4064C161.044 20.3911 161.087 22.3331 161.173 23.2367H158.304C158.369 22.2268 158.4 20.2848 158.4 17.4064V7.32621C158.4 5.73783 158.367 4.3416 158.304 3.13958H156.046C153.682 3.13958 151.822 3.1825 150.469 3.26836V0.852051C151.48 0.917467 153.338 0.948131 156.048 0.948131Z" fill="black"/>
<path d="M113.365 5.31488C111.059 1.77627 106.582 -0.535786 101.903 -0.000190578C96.852 0.578334 92.6971 4.34386 91.4649 9.19897C90.2798 13.864 91.9091 19.087 95.7631 21.8734C100.694 25.4365 108.465 24.4287 113.161 18.807C110.228 16.6258 107.293 14.4466 104.36 12.2654C103.537 11.6419 103.127 11.233 101.903 12.2654C100.061 13.6963 98.2193 15.1273 96.3772 16.5583C98.2193 15.6036 99.8567 14.7185 101.903 13.9008C102.517 13.6963 103.265 13.5737 104.155 13.9008C104.556 14.0479 104.832 14.2217 104.974 14.3096C106.503 15.2725 108.789 18.0465 109.112 18.4431C108.367 18.946 105.416 20.8083 101.494 20.238C100.581 20.1051 97.2266 19.6165 95.1491 16.7627C92.8506 13.6064 93.3664 9.2746 95.1491 6.33701C97.1795 2.9926 100.931 1.28156 104.36 1.43079C110.447 1.69654 114.778 7.78025 114.798 12.8786C114.804 14.5099 114.573 15.8571 114.184 16.7627C114.643 15.8694 115.056 14.3852 115.207 12.4698C115.246 11.9812 115.469 8.54072 113.365 5.31488Z" fill="black"/>
</svg>