<svg width="221" height="74" viewBox="0 0 221 74" fill="none" xmlns="http://www.w3.org/2000/svg">
<path d="M202.675 0H13.8049C12.5713 0.0181056 11.3407 0.128645 10.1236 0.330685C8.90383 0.529212 7.72337 0.919878 6.62637 1.48808C5.51759 2.04634 4.50982 2.7852 3.64451 3.67427C2.76029 4.53935 2.02629 5.54511 1.47253 6.65043C0.91407 7.74986 0.523222 8.92635 0.312912 10.141C0.107503 11.3551 0.00284325 12.584 0 13.8153C0 14.3848 0 14.9543 0 15.5054V57.98C0 58.5495 0 59.1007 0 59.6702C0.00284325 60.9014 0.107503 62.1304 0.312912 63.3444C0.520357 64.5657 0.9113 65.7486 1.47253 66.8534C2.03143 67.9501 2.76496 68.949 3.64451 69.8112C4.51125 70.6937 5.51894 71.4263 6.62637 71.979C7.72683 72.539 8.90598 72.9292 10.1236 73.1364C11.3407 73.3384 12.5713 73.449 13.8049 73.4671H206.375C207.608 73.449 208.839 73.3384 210.056 73.1364C211.279 72.9267 212.464 72.5366 213.572 71.979C214.676 71.4215 215.683 70.6894 216.554 69.8112C217.422 68.9394 218.154 67.9423 218.726 66.8534C219.278 65.7468 219.663 64.5641 219.867 63.3444C220.069 62.1297 220.18 60.9015 220.198 59.6702C220.198 59.1007 220.198 58.5495 220.198 57.98V15.5054C220.198 14.9543 220.198 14.3848 220.198 13.8153C220.18 12.584 220.069 11.3557 219.867 10.141C219.663 8.9272 219.278 7.75067 218.726 6.65043C217.583 4.44468 215.782 2.64736 213.572 1.50645C212.464 0.948858 211.279 0.558794 210.056 0.349056C208.839 0.147016 207.608 0.0364769 206.375 0.0183714H202.693L202.675 0Z" fill="black"/>
<path d="M15.4977 71.8689H13.8411C12.6897 71.8874 11.5387 71.8137 10.3991 71.6485C9.32379 71.4409 8.28698 71.0691 7.32518 70.5462C6.38148 70.0709 5.51818 69.451 4.76667 68.7091C4.01402 67.9599 3.39192 67.0907 2.92601 66.1371C2.43312 65.1787 2.09164 64.15 1.91365 63.0874C1.73268 61.9509 1.63425 60.8027 1.61914 59.652C1.61914 59.2662 1.61914 57.9618 1.61914 57.9618V15.5056C1.61914 15.5056 1.61914 14.238 1.61914 13.8706C1.63425 12.7198 1.73268 11.5717 1.91365 10.4351C2.08214 9.36101 2.41749 8.31969 2.9076 7.34875C3.37895 6.39842 4.00045 5.52998 4.74826 4.77676C5.5071 4.03532 6.37637 3.41561 7.32518 2.93962C8.28543 2.44768 9.3161 2.10685 10.3807 1.9292C11.5243 1.73839 12.6816 1.64009 13.8411 1.63525H206.356C207.502 1.65122 208.647 1.74945 209.779 1.9292C210.849 2.10952 211.885 2.45017 212.853 2.93962C214.756 3.91277 216.306 5.45411 217.289 7.34875C217.768 8.30493 218.103 9.32633 218.283 10.38C218.47 11.5223 218.575 12.6766 218.596 13.8338V15.4689C218.596 16.167 218.596 16.8284 218.596 17.4897V55.9594C218.596 56.6391 218.596 57.2821 218.596 57.9435V59.652C218.575 60.791 218.47 61.9269 218.283 63.0507C218.112 64.1182 217.776 65.1531 217.289 66.1187C216.81 67.0591 216.19 67.9203 215.449 68.6723C214.693 69.418 213.823 70.0382 212.872 70.5095C211.913 71.0479 210.876 71.4323 209.798 71.6485C208.66 71.8375 207.509 71.9358 206.356 71.9424H15.4977V71.8689Z" fill="white"/>
<path d="M45.5568 37.2927C45.5747 35.7587 45.9827 34.2543 46.7425 32.9208C47.5023 31.5872 48.589 30.4682 49.9008 29.6686C49.0666 28.4818 47.967 27.5054 46.689 26.8166C45.411 26.1278 43.9898 25.7456 42.5381 25.7003C39.4642 25.3697 36.4639 27.5375 34.881 27.5375C33.298 27.5375 30.8499 25.7003 28.2362 25.7003C26.5474 25.7552 24.9017 26.246 23.4596 27.1251C22.0176 28.0041 20.8285 29.2412 20.0084 30.7157C16.5296 36.9436 19.1065 45.9272 22.5117 50.961C24.2236 53.4044 26.1931 56.1233 28.8252 56.0131C31.4573 55.9029 32.3225 54.3964 35.4148 54.3964C38.5071 54.3964 39.3538 56.0131 42.0227 55.958C44.6917 55.9029 46.4955 53.5146 48.1337 51.0528C49.3632 49.3213 50.3077 47.4049 50.9315 45.3761C49.3391 44.7047 47.9801 43.58 47.0242 42.1424C46.0684 40.7048 45.558 39.018 45.5568 37.2927Z" fill="black"/>
<path d="M40.4589 22.4306C41.9516 20.6411 42.6847 18.3404 42.5021 16.019C40.2205 16.2648 38.1132 17.3525 36.5935 19.0687C35.8543 19.9094 35.2885 20.8873 34.9284 21.9465C34.5684 23.0057 34.4211 24.1254 34.4952 25.2415C35.6374 25.2527 36.7673 25.0057 37.8001 24.5188C38.833 24.032 39.742 23.3181 40.4589 22.4306Z" fill="black"/>
<path d="M77.8239 49.8593H69.1176L67.0192 56.0321H63.3379L71.584 33.2148H75.431L83.6772 56.0321H79.9959L77.8239 49.8593ZM70.0195 47.0117H76.922L73.5904 36.9993H73.4983L70.0195 47.0117Z" fill="black"/>
<path d="M101.496 47.7659C101.496 52.9283 98.7164 56.2535 94.5381 56.2535C93.4716 56.3007 92.4135 56.0464 91.4854 55.5199C90.5574 54.9934 89.7971 54.216 89.2922 53.2773V61.5077H85.7949V39.4621H89.1081V42.2545C89.6446 41.3294 90.423 40.5672 91.36 40.0494C92.2969 39.5317 93.3573 39.2779 94.4276 39.3151C98.7164 39.2232 101.496 42.5485 101.496 47.7659ZM97.9801 47.7659C97.9801 44.404 96.1394 42.2545 93.5809 42.2545C91.0224 42.2545 89.2001 44.5142 89.2001 47.7659C89.2001 51.0177 91.0408 53.3692 93.5809 53.3692C96.121 53.3692 97.9801 51.1095 97.9801 47.7659Z" fill="black"/>
<path d="M119.827 47.7661C119.827 52.9284 117.066 56.2536 112.888 56.2536C111.821 56.303 110.762 56.0496 109.833 55.5229C108.905 54.9962 108.145 54.2176 107.642 53.2775V61.5078H104.145V39.4622H107.458V42.2546C107.99 41.3296 108.764 40.567 109.699 40.049C110.633 39.531 111.691 39.2773 112.759 39.3152C117.048 39.2234 119.827 42.5486 119.827 47.7661ZM116.311 47.7661C116.311 44.4041 114.581 42.2546 111.912 42.2546C109.243 42.2546 107.55 44.5143 107.55 47.7661C107.55 51.0178 109.298 53.2775 111.912 53.2775C114.526 53.2775 116.311 51.0729 116.311 47.6742V47.7661Z" fill="black"/>
<path d="M131.958 49.6031C132.216 51.8628 134.406 53.2774 137.48 53.2774C140.554 53.2774 142.432 51.7893 142.432 49.7501C142.432 47.7109 141.18 46.9209 138.216 46.186L135.253 45.4696C131.056 44.4591 129.124 42.5118 129.124 39.3335C129.124 35.3837 132.547 32.6831 137.425 32.6831C142.303 32.6831 145.579 35.3837 145.69 39.3335H142.174C141.971 37.0555 140.075 35.6593 137.333 35.6593C134.59 35.6593 132.694 37.0371 132.694 39.0763C132.694 40.6746 133.891 41.63 136.836 42.3648L139.358 42.9711C144.051 44.0733 146.002 45.9656 146.002 49.2908C146.002 53.5713 142.579 56.2352 137.167 56.2352C132.105 56.2352 128.682 53.6265 128.461 49.5113L131.958 49.6031Z" fill="black"/>
<path d="M153.383 35.457V39.3885H156.549V42.0891H153.383V51.2748C153.383 52.6894 154.009 53.3507 155.408 53.3507C155.776 53.3507 156.163 53.3507 156.531 53.3507V56.033C155.924 56.1481 155.308 56.2035 154.69 56.1983C151.303 56.1983 149.997 54.9307 149.997 51.6973V42.0891H147.512V39.3885H149.941V35.457H153.383Z" fill="black"/>
<path d="M158.391 47.765C158.391 42.5292 161.465 39.2407 166.287 39.2407C171.11 39.2407 174.183 42.5292 174.183 47.765C174.183 53.0009 171.146 56.2342 166.287 56.2342C161.428 56.2342 158.391 52.9641 158.391 47.765ZM170.705 47.765C170.705 44.1826 169.048 42.0515 166.287 42.0515C163.526 42.0515 161.943 44.0908 161.943 47.765C161.943 51.4393 163.581 53.4785 166.361 53.4785C169.14 53.4785 170.778 51.3658 170.778 47.765H170.705Z" fill="black"/>
<path d="M177.018 39.3886H180.349V42.2545C180.572 41.3716 181.093 40.5922 181.823 40.047C182.554 39.5018 183.45 39.2239 184.362 39.26C184.758 39.2573 185.153 39.3005 185.54 39.3886V42.5852C185.06 42.3877 184.549 42.2757 184.03 42.2545C183.57 42.2247 183.108 42.2872 182.672 42.4382C182.236 42.5892 181.835 42.8257 181.492 43.1339C181.149 43.442 180.871 43.8155 180.675 44.2324C180.479 44.6493 180.368 45.1011 180.349 45.5613C180.349 45.7267 180.349 45.9104 180.349 46.0941V56.033H177.018V39.3886Z" fill="black"/>
<path d="M201.296 51.1477C200.836 54.1606 197.891 56.2366 194.136 56.2366C189.277 56.2366 186.276 52.9849 186.276 47.7858C186.276 42.5867 189.295 39.188 193.989 39.188C198.682 39.188 201.499 42.3479 201.499 47.4V48.5574H189.718V48.7778C189.621 49.9198 189.981 51.0536 190.719 51.9315C191.457 52.8093 192.514 53.3598 193.657 53.4625H194.21C195.017 53.5378 195.827 53.3515 196.52 52.9312C197.213 52.511 197.752 51.8792 198.057 51.1294L201.296 51.1477ZM189.737 46.1691H198.075C198.136 45.1263 197.784 44.1013 197.096 43.3145C196.408 42.5278 195.437 42.0421 194.394 41.9621H194.081C193.526 41.9572 192.975 42.0619 192.461 42.27C191.946 42.4781 191.478 42.7855 191.083 43.1747C190.688 43.5639 190.374 44.0272 190.158 44.5379C189.943 45.0486 189.831 45.5967 189.829 46.1507L189.737 46.1691Z" fill="black"/>
<path d="M69.5959 16.039C70.8783 15.9529 72.143 16.3755 73.1149 17.2148C74.0869 18.0542 74.6877 19.2426 74.7866 20.5216C74.8234 20.8451 74.8234 21.1718 74.7866 21.4953C74.7866 24.9859 72.9459 27.0067 69.6328 27.0067H65.6201V15.9839L69.5959 16.039ZM67.3319 25.4451H69.3935C69.8486 25.4775 70.3057 25.4193 70.7381 25.2737C71.1705 25.1282 71.5696 24.8983 71.9121 24.5974C72.2547 24.2965 72.5339 23.9307 72.7335 23.5211C72.9331 23.1116 73.0491 22.6665 73.0748 22.2118C73.0931 21.9794 73.0931 21.746 73.0748 21.5137C73.137 21.0636 73.1097 20.6058 72.9943 20.1663C72.879 19.7269 72.6779 19.3144 72.4027 18.9526C72.1274 18.5909 71.7833 18.2868 71.3901 18.058C70.9969 17.8291 70.5624 17.6799 70.1113 17.6189C69.8908 17.6006 69.6692 17.6006 69.4487 17.6189H67.3319V25.4451Z" fill="black"/>
<path d="M76.6823 22.8535C76.5847 21.8182 76.9032 20.7865 77.5676 19.9854C78.2321 19.1844 79.1882 18.6797 80.2256 18.5822C81.263 18.4848 82.2966 18.8026 83.0992 19.4658C83.9018 20.129 84.4075 21.0833 84.5051 22.1187C84.5236 22.3633 84.5236 22.6089 84.5051 22.8535C84.5377 23.8509 84.1891 24.8232 83.53 25.5735C82.8708 26.3238 81.9505 26.7959 80.9556 26.894C79.9607 26.9922 78.9656 26.709 78.1721 26.102C77.3786 25.495 76.846 24.6095 76.6823 23.6251C76.6639 23.3683 76.6639 23.1104 76.6823 22.8535ZM82.8117 22.8535C82.8117 21.0164 82.0203 20.0244 80.6029 20.0244C79.1856 20.0244 78.3757 21.0715 78.3757 22.8535C78.3757 24.6356 79.112 25.7195 80.6029 25.7195C82.0939 25.7195 82.8117 24.6723 82.8117 22.8719V22.8535Z" fill="black"/>
<path d="M94.8869 27.0077H93.1935L91.4817 20.9084H91.3528L89.641 27.0077H87.966L85.6836 18.7222H87.3402L88.8311 25.0419H88.9416L90.6534 18.7222H92.2179L93.9297 25.0419H94.0586L95.5311 18.7222H97.1693L94.8869 27.0077Z" fill="black"/>
<path d="M99.0837 18.7215H100.667V20.0443H100.795C100.999 19.5712 101.347 19.1743 101.79 18.9104C102.233 18.6465 102.748 18.5289 103.262 18.5746C103.615 18.547 103.97 18.5894 104.307 18.6993C104.643 18.8092 104.955 18.9844 105.224 19.2149C105.492 19.4454 105.712 19.7266 105.872 20.0423C106.031 20.358 106.126 20.7021 106.152 21.0547C106.17 21.2502 106.17 21.4471 106.152 21.6426V27.007H104.514V22.0468C104.514 20.7056 103.925 20.0443 102.673 20.0443C102.419 20.0239 102.164 20.0564 101.923 20.1396C101.683 20.2227 101.462 20.3548 101.275 20.5275C101.088 20.7002 100.939 20.9096 100.838 21.1427C100.736 21.3757 100.684 21.6273 100.685 21.8814V27.007H99.0469L99.0837 18.7215Z" fill="black"/>
<path d="M108.729 15.5073H110.404V27.0078H108.766L108.729 15.5073Z" fill="black"/>
<path d="M112.65 22.8535C112.552 21.8182 112.87 20.7865 113.535 19.9854C114.199 19.1844 115.156 18.6797 116.193 18.5822C117.23 18.4848 118.264 18.8026 119.066 19.4658C119.869 20.129 120.375 21.0833 120.472 22.1187C120.491 22.3633 120.491 22.6089 120.472 22.8535C120.505 23.8509 120.156 24.8232 119.497 25.5735C118.838 26.3238 117.918 26.7959 116.923 26.894C115.928 26.9922 114.933 26.709 114.139 26.102C113.346 25.495 112.813 24.6095 112.65 23.6251C112.613 23.3693 112.613 23.1094 112.65 22.8535ZM118.779 22.8535C118.779 21.0164 117.969 20.0244 116.552 20.0244C115.135 20.0244 114.343 21.0715 114.343 22.8535C114.343 24.6356 115.135 25.7195 116.552 25.7195C117.969 25.7195 118.779 24.6539 118.779 22.8535Z" fill="black"/>
<path d="M122.183 24.6564C122.183 23.1683 123.288 22.3233 125.276 22.1947L127.521 22.0477V21.3312C127.521 20.4677 126.932 19.9717 125.809 19.9717C124.687 19.9717 124.263 20.3024 124.098 20.8903H122.496C122.68 19.4573 124.006 18.5571 125.883 18.5571C127.761 18.5571 129.141 19.5859 129.141 21.3312V27.008H127.558V25.8322H127.429C127.173 26.2543 126.806 26.5987 126.368 26.8285C125.93 27.0583 125.438 27.1648 124.944 27.1366C124.618 27.1721 124.287 27.1427 123.972 27.05C123.657 26.9572 123.363 26.8031 123.108 26.5963C122.853 26.3896 122.642 26.1344 122.486 25.8456C122.331 25.5568 122.234 25.24 122.202 24.9136C122.187 24.8288 122.18 24.7426 122.183 24.6564ZM127.521 23.8848V23.1867L125.497 23.3153C124.355 23.3153 123.822 23.793 123.822 24.5094C123.822 25.2259 124.484 25.6852 125.368 25.6852C125.623 25.7106 125.88 25.6856 126.126 25.6116C126.371 25.5376 126.599 25.4161 126.798 25.2541C126.996 25.092 127.16 24.8925 127.281 24.667C127.402 24.4416 127.478 24.1945 127.503 23.9399L127.521 23.8848Z" fill="black"/>
<path d="M131.295 22.8559C131.295 20.2471 132.639 18.5937 134.737 18.5937C135.255 18.5693 135.769 18.6929 136.219 18.95C136.669 19.2071 137.036 19.587 137.277 20.0451H137.388V15.5073H139.026V27.0078H137.461V25.7218H137.332C137.07 26.1724 136.69 26.5436 136.233 26.796C135.776 27.0483 135.259 27.1723 134.737 27.1548C132.62 27.1364 131.295 25.483 131.295 22.8559ZM132.988 22.8559C132.988 24.693 133.817 25.6667 135.197 25.6667C136.578 25.6667 137.424 24.6011 137.424 22.8742C137.424 21.1473 136.559 20.0634 135.197 20.0634C133.835 20.0634 132.988 21.129 132.988 22.8559Z" fill="black"/>
<path d="M145.799 22.8535C145.701 21.8182 146.019 20.7865 146.684 19.9854C147.348 19.1844 148.304 18.6797 149.342 18.5822C150.379 18.4848 151.413 18.8026 152.215 19.4658C153.018 20.129 153.524 21.0833 153.621 22.1187C153.64 22.3633 153.64 22.6089 153.621 22.8535C153.654 23.8509 153.305 24.8232 152.646 25.5735C151.987 26.3238 151.067 26.7959 150.072 26.894C149.077 26.9922 148.082 26.709 147.288 26.102C146.495 25.495 145.962 24.6095 145.799 23.6251C145.78 23.3683 145.78 23.1104 145.799 22.8535ZM151.928 22.8535C151.928 21.0164 151.118 20.0244 149.719 20.0244C148.32 20.0244 147.492 21.0715 147.492 22.8535C147.492 24.6356 148.283 25.7195 149.719 25.7195C151.155 25.7195 151.928 24.6539 151.928 22.8535Z" fill="black"/>
<path d="M155.812 18.721H157.377V20.0438H157.506C157.713 19.5692 158.064 19.1717 158.51 18.9079C158.956 18.6441 159.474 18.5272 159.991 18.5741C160.703 18.5234 161.406 18.7556 161.947 19.2201C162.489 19.6847 162.824 20.3439 162.88 21.0542C162.899 21.2497 162.899 21.4466 162.88 21.6421V27.0065H161.261V22.0462C161.261 20.7051 160.672 20.0438 159.42 20.0438C159.166 20.0234 158.911 20.0559 158.67 20.1391C158.43 20.2222 158.209 20.3543 158.022 20.527C157.835 20.6997 157.686 20.9091 157.585 21.1422C157.483 21.3752 157.431 21.6268 157.432 21.8809C157.423 21.9725 157.423 22.0648 157.432 22.1565V27.0065H155.794L155.812 18.721Z" fill="black"/>
<path d="M172.102 16.6655V18.7782H173.943V20.2112H172.102V24.4734C172.102 25.3368 172.452 25.7226 173.262 25.7226H173.888V27.0821C173.594 27.1094 173.298 27.1094 173.004 27.0821C171.163 27.0821 170.464 26.4391 170.464 24.8592V20.2112H169.139V18.8517H170.464V16.6655H172.102Z" fill="black"/>
<path d="M176.114 15.5073H177.752V20.0634H177.881C178.093 19.5952 178.442 19.2022 178.883 18.9364C179.323 18.6707 179.834 18.5448 180.348 18.5753C180.706 18.5555 181.064 18.6064 181.402 18.725C181.74 18.8436 182.052 19.0276 182.318 19.2666C182.585 19.5055 182.802 19.7946 182.957 20.1173C183.111 20.4401 183.2 20.7901 183.219 21.1473C183.238 21.3183 183.238 21.4908 183.219 21.6617V27.0078H181.581V22.0475C181.581 20.7248 180.974 20.0634 179.74 20.0634C179.481 20.0409 179.219 20.071 178.971 20.1521C178.723 20.2331 178.494 20.3634 178.298 20.535C178.102 20.7067 177.943 20.9161 177.83 21.1508C177.717 21.3855 177.653 21.6405 177.642 21.9006V27.0078H176.114V15.5073Z" fill="black"/>
<path d="M192.791 24.7656C192.568 25.5393 192.073 26.2069 191.397 26.6456C190.721 27.0843 189.909 27.2648 189.11 27.1539C188.611 27.1788 188.113 27.1022 187.644 26.9287C187.176 26.7553 186.748 26.4886 186.387 26.1449C186.025 25.8012 185.738 25.3877 185.541 24.9295C185.345 24.4713 185.244 23.978 185.244 23.4796C185.226 23.2779 185.226 23.075 185.244 22.8734C185.177 22.3775 185.209 21.8732 185.337 21.3894C185.465 20.9057 185.688 20.452 185.992 20.0543C186.297 19.6566 186.677 19.3228 187.111 19.072C187.545 18.8213 188.024 18.6584 188.521 18.5928C188.704 18.5745 188.889 18.5745 189.073 18.5928C191.374 18.5928 192.754 20.1544 192.754 22.7631V23.3326H186.919V23.4245C186.902 23.7152 186.944 24.0065 187.041 24.2808C187.139 24.5552 187.292 24.8071 187.489 25.0214C187.687 25.2358 187.926 25.4082 188.191 25.5284C188.457 25.6485 188.744 25.714 189.036 25.7209H189.239C189.633 25.7653 190.031 25.6932 190.385 25.5136C190.738 25.334 191.031 25.0547 191.227 24.7105L192.791 24.7656ZM187.048 22.0466H191.227C191.262 21.5212 191.089 21.0029 190.744 20.6041C190.4 20.2052 189.912 19.9578 189.386 19.9156H189.183C188.617 19.9156 188.074 20.1401 187.674 20.5397C187.273 20.9394 187.048 21.4814 187.048 22.0466Z" fill="black"/>
</svg>