<svg width="211" height="30" viewBox="0 0 211 30" fill="none" xmlns="http://www.w3.org/2000/svg">
<path d="M3.51339 3.92252V12.7793H6.73324C9.68477 12.7793 11.793 12.7384 13.0554 12.6592V15.6796C11.793 15.5978 9.68732 15.5595 6.73324 15.5595H3.51339V26.2688H7.09611C10.4514 26.2688 12.7462 26.2279 13.9804 26.1487V29.1691C12.7462 29.0873 10.4514 29.049 7.09611 29.049H0.0507812C0.158109 26.0695 0.211775 23.6419 0.211775 21.7612V8.43522C0.211775 5.24107 0.158109 2.82629 0.0507812 1.18833H6.77413C9.67199 1.18833 11.954 1.13467 13.6176 1.02734V4.08606C12.5162 3.97874 10.2367 3.92508 6.77413 3.92508H3.51339V3.92252Z" fill="#171515"/>
<path d="M29.3188 29.0443C29.398 27.7819 29.4389 25.4489 29.4389 22.0401V16.122L22.9583 6.41689C21.5094 4.29853 20.2342 2.55325 19.1328 1.18359H23.4004C23.8578 2.09584 24.6219 3.37095 25.6952 5.00891L31.2098 13.1808L36.4433 5.28999C37.6776 3.49105 38.5234 2.12395 38.9809 1.18359H43.0057C42.0116 2.41781 40.6828 4.27042 39.0192 6.73886L32.7379 16.1194V22.0376C32.7379 25.0426 32.7916 27.3782 32.8989 29.0417H29.3188V29.0443Z" fill="#171515"/>
<path d="M51.6228 3.92252V12.7793H54.8426C57.7941 12.7793 59.9024 12.7384 61.1648 12.6592V15.6796C59.9024 15.5978 57.7967 15.5595 54.8426 15.5595H51.6228V26.2688H55.2055C58.5608 26.2688 60.8556 26.2279 62.0898 26.1487V29.1691C60.8556 29.0873 58.5608 29.049 55.2055 29.049H48.1602C48.2675 26.0695 48.3211 23.6419 48.3211 21.7612V8.43522C48.3211 5.24107 48.2675 2.82629 48.1602 1.18833H54.8835C57.7814 1.18833 60.0634 1.13467 61.727 1.02734V4.08606C60.6256 3.97874 58.3461 3.92508 54.8835 3.92508H51.6228V3.92252Z" fill="#171515"/>
<path d="M70.6256 15.1125C70.6256 18.2785 71.7653 20.9897 74.0473 23.246C76.3293 25.4998 79.1071 26.6267 82.3806 26.6267C85.5212 26.6267 87.977 25.8627 89.7479 24.3321V28.1574C88.7538 28.4538 87.9489 28.6812 87.333 28.8422C86.7146 29.0032 85.9377 29.1514 84.9973 29.2843C84.0569 29.4171 83.1063 29.4861 82.1378 29.4861C79.3728 29.4861 76.8429 28.8422 74.5482 27.5543C72.2534 26.2664 70.462 24.5211 69.1741 22.321C67.8862 20.1209 67.2422 17.7189 67.2422 15.115C67.2422 12.4856 67.8862 10.0631 69.1741 7.84768C70.462 5.63221 72.2534 3.88182 74.5482 2.59394C76.8429 1.30605 79.3728 0.662109 82.1378 0.662109C82.8891 0.662109 83.6404 0.708106 84.3917 0.802653C85.143 0.8972 85.741 0.996859 86.1831 1.10418C86.6251 1.21151 87.2027 1.35205 87.9131 1.52581C88.6235 1.69957 89.1397 1.82734 89.4642 1.90911V5.81364C87.6933 4.36477 85.3168 3.63906 82.3371 3.63906C80.1906 3.63906 78.2178 4.15012 76.4187 5.1697C74.6197 6.18927 73.204 7.57937 72.1716 9.33743C71.1418 11.0955 70.6256 13.0196 70.6256 15.1125Z" fill="#171515"/>
<path d="M98.365 26.2257H103.236C106.348 26.2257 108.523 26.1849 109.757 26.1056V29.2053C108.119 29.0979 105.944 29.0443 103.236 29.0443H94.9023C95.0097 26.0648 95.0633 23.6372 95.0633 21.7565V8.47137C95.0633 5.25167 95.0097 2.82155 94.9023 1.18359H98.4851C98.4033 3.62648 98.365 6.05404 98.365 8.47137V26.2257Z" fill="#171515"/>
<path d="M153.08 7.707C153.08 8.48637 153.274 9.20953 153.662 9.88158C154.051 10.5536 154.554 11.1362 155.172 11.632C155.791 12.1277 156.473 12.626 157.227 13.1217C157.978 13.6175 158.73 14.1413 159.481 14.6907C160.232 15.2401 160.917 15.8253 161.536 16.4411C162.154 17.0595 162.655 17.8235 163.046 18.7358C163.434 19.648 163.628 20.642 163.628 21.7153C163.628 24.0764 162.849 25.9903 161.293 27.452C159.736 28.9162 157.71 29.647 155.213 29.647C154.434 29.647 153.69 29.5933 152.98 29.486C152.27 29.3787 151.523 29.2305 150.746 29.0439C149.967 28.8574 149.338 28.722 148.855 28.6402V24.01C149.364 24.8685 150.225 25.5866 151.431 26.1641C152.64 26.7416 153.928 27.0303 155.295 27.0303C156.772 27.0303 157.937 26.5729 158.799 25.6607C159.657 24.7484 160.087 23.5679 160.087 22.119C160.087 21.4214 159.938 20.7647 159.645 20.1463C159.348 19.5305 158.96 18.9939 158.477 18.5365C157.994 18.0816 157.437 17.6242 156.805 17.1668C156.174 16.712 155.538 16.2801 154.894 15.8789C154.25 15.4752 153.619 15.0127 153 14.4888C152.382 13.965 151.825 13.4233 151.329 12.8585C150.833 12.2938 150.437 11.6039 150.141 10.7862C149.844 9.96846 149.699 9.07409 149.699 8.10818C149.699 5.77262 150.445 3.94045 151.932 2.61424C153.419 1.28803 155.362 0.621094 157.751 0.621094C158.581 0.621094 159.568 0.741193 160.71 0.983949C161.85 1.2267 162.583 1.35958 162.905 1.38769V5.77518C162.53 4.91659 161.886 4.27265 160.973 3.84335C160.061 3.41406 158.988 3.19941 157.753 3.19941C156.358 3.19941 155.231 3.59549 154.373 4.38763C153.509 5.17723 153.08 6.28368 153.08 7.707Z" fill="#171515"/>
<path d="M172.24 3.92252V12.7793H175.46C178.411 12.7793 180.52 12.7384 181.782 12.6592V15.6796C180.52 15.5978 178.414 15.5595 175.46 15.5595H172.24V26.2688H175.823C179.178 26.2688 181.473 26.2279 182.707 26.1487V29.1691C181.473 29.0873 179.178 29.049 175.823 29.049H168.777C168.885 26.0695 168.938 23.6419 168.938 21.7612V8.43522C168.938 5.24107 168.885 2.82629 168.777 1.18833H175.501C178.399 1.18833 180.681 1.13467 182.344 1.02734V4.08606C181.243 3.97874 178.963 3.92508 175.501 3.92508H172.24V3.92252Z" fill="#171515"/>
<path d="M194.829 1.1826H203.968C207.402 1.1826 209.751 1.14171 211.013 1.0625V4.08289C209.321 3.97556 206.973 3.92191 203.968 3.92191H201.108C201.08 4.91593 201.067 6.65865 201.067 9.1552V21.7555C201.067 25.4863 201.121 27.9138 201.228 29.0433H197.645C197.727 27.7809 197.766 25.3534 197.766 21.7555V9.1552C197.766 7.16972 197.725 5.42443 197.645 3.92191H194.827C191.875 3.92191 189.552 3.97556 187.863 4.08289V1.0625C189.126 1.14427 191.446 1.1826 194.829 1.1826Z" fill="#171515"/>
<path d="M141.536 6.64238C138.656 2.21912 133.068 -0.670953 127.226 -0.00145892C120.919 0.721697 115.732 5.4286 114.193 11.4975C112.714 17.3287 114.748 23.8576 119.56 27.3405C125.716 31.7944 135.419 30.5346 141.281 23.5075C137.619 20.781 133.954 18.057 130.292 15.3305C129.265 14.5511 128.754 14.04 127.226 15.3305C124.926 17.1192 122.626 18.9079 120.326 20.6966C122.626 19.5033 124.67 18.3969 127.226 17.3747C127.992 17.1192 128.925 16.9659 130.037 17.3747C130.538 17.5587 130.883 17.7759 131.059 17.8858C132.968 19.0893 135.822 22.5569 136.226 23.0527C135.296 23.6813 131.611 26.0092 126.715 25.2962C125.575 25.1301 121.387 24.5194 118.793 20.9522C115.923 17.0068 116.567 11.592 118.793 7.92004C121.328 3.73953 126.012 1.60073 130.292 1.78727C137.892 2.11946 143.3 9.72409 143.325 16.0971C143.333 18.1362 143.044 19.8202 142.558 20.9522C143.131 19.8355 143.647 17.9803 143.836 15.586C143.885 14.9753 144.163 10.6747 141.536 6.64238Z" fill="#171515"/>
</svg>