<svg width="221" height="66" viewBox="0 0 221 66" fill="none" xmlns="http://www.w3.org/2000/svg">
<path d="M212.213 0H8.16204C3.65427 0 0 3.65427 0 8.16204V57.1343C0 61.642 3.65427 65.2963 8.16204 65.2963H212.213C216.721 65.2963 220.375 61.642 220.375 57.1343V8.16204C220.375 3.65427 216.721 0 212.213 0Z" fill="white"/>
<path d="M212.213 1.30592C214.03 1.31024 215.771 2.03395 217.056 3.31879C218.341 4.60363 219.065 6.34501 219.069 8.16204V57.1343C219.065 58.9513 218.341 60.6927 217.056 61.9775C215.771 63.2623 214.03 63.9861 212.213 63.9904H8.16204C6.34368 63.9904 4.5998 63.268 3.31403 61.9823C2.02826 60.6965 1.30593 58.9526 1.30593 57.1343V8.16204C1.31024 6.34501 2.03396 4.60363 3.3188 3.31879C4.60364 2.03395 6.34501 1.31024 8.16204 1.30592H212.213ZM212.213 0H8.16204C5.99733 0 3.92128 0.859926 2.39061 2.39061C0.859926 3.92128 0 5.99733 0 8.16204V57.1343C0 59.299 0.859926 61.375 2.39061 62.9057C3.92128 64.4364 5.99733 65.2963 8.16204 65.2963H212.213C214.378 65.2963 216.454 64.4364 217.984 62.9057C219.515 61.375 220.375 59.299 220.375 57.1343V8.16204C220.375 5.99733 219.515 3.92128 217.984 2.39061C216.454 0.859926 214.378 0 212.213 0Z" fill="black"/>
<path d="M77.3935 16.7326C77.4243 17.3303 77.3331 17.928 77.1254 18.4893C76.9178 19.0506 76.5979 19.5638 76.1855 19.9974C75.7225 20.4783 75.1635 20.8563 74.5447 21.1066C73.9259 21.3569 73.2613 21.474 72.5942 21.4503C71.9243 21.4652 71.2585 21.3425 70.638 21.0898C70.0175 20.8371 69.4554 20.4598 68.9866 19.9811C68.4988 19.508 68.1149 18.9386 67.8591 18.3091C67.6034 17.6796 67.4814 17.0037 67.5011 16.3245C67.4837 15.648 67.6068 14.9753 67.8625 14.3488C68.1181 13.7222 68.5009 13.1555 68.9866 12.6843C69.4554 12.2056 70.0175 11.8282 70.638 11.5755C71.2585 11.3228 71.9243 11.2002 72.5942 11.2151C73.2848 11.208 73.969 11.3471 74.602 11.6232C75.1907 11.8652 75.7157 12.2394 76.1365 12.7169L75.2713 13.5821C74.9541 13.2057 74.5558 12.906 74.1063 12.7053C73.6568 12.5046 73.1678 12.4081 72.6758 12.4231C72.1803 12.4154 71.6883 12.5067 71.2285 12.6917C70.7688 12.8767 70.3507 13.1517 69.9986 13.5005C69.6244 13.8666 69.3308 14.307 69.1368 14.7934C68.9428 15.2797 68.8527 15.8013 68.8723 16.3245C68.8517 16.8479 68.9413 17.3697 69.1354 17.8562C69.3294 18.3427 69.6235 18.783 69.9986 19.1486C70.3476 19.5026 70.7649 19.782 71.225 19.97C71.6852 20.158 72.1788 20.2506 72.6758 20.2423C73.181 20.2574 73.6839 20.168 74.1529 19.9798C74.622 19.7916 75.0472 19.5086 75.4019 19.1486C75.9067 18.6058 76.1969 17.898 76.2181 17.157H72.6758V15.9817H77.4098C77.4279 16.232 77.4224 16.4834 77.3935 16.7326Z" fill="black" stroke="black" stroke-width="0.2" stroke-miterlimit="10"/>
<path d="M84.9185 12.6352H80.462V15.7368H84.4941V16.9121H80.462V20.03H84.9185V21.2217H79.2051V11.4272H84.9185V12.6352Z" fill="black" stroke="black" stroke-width="0.2" stroke-miterlimit="10"/>
<path d="M90.2406 21.2217H89V12.6352H86.2412V11.4272H92.9667V12.6352H90.2406V21.2217Z" fill="black" stroke="black" stroke-width="0.2" stroke-miterlimit="10"/>
<path d="M97.8311 21.2217V11.4272H99.088V21.2217H97.8311Z" fill="black" stroke="black" stroke-width="0.2" stroke-miterlimit="10"/>
<path d="M104.671 21.2217H103.414V12.6352H100.688V11.4272H107.413V12.6352H104.671V21.2217Z" fill="black" stroke="black" stroke-width="0.2" stroke-miterlimit="10"/>
<path d="M120.162 19.9652C119.696 20.4448 119.137 20.824 118.52 21.0795C117.902 21.3349 117.239 21.4613 116.571 21.4507C115.902 21.4613 115.239 21.3349 114.621 21.0795C114.004 20.824 113.445 20.4448 112.979 19.9652C112.506 19.4861 112.134 18.9171 111.885 18.292C111.635 17.6668 111.513 16.998 111.526 16.3249C111.513 15.6543 111.634 14.9878 111.884 14.3651C112.134 13.7425 112.506 13.1766 112.979 12.701C113.441 12.2158 113.999 11.8329 114.617 11.577C115.236 11.3212 115.901 11.198 116.571 11.2155C117.237 11.1993 117.9 11.3231 118.516 11.579C119.131 11.8349 119.687 12.2171 120.146 12.701C120.626 13.1736 121.006 13.7379 121.264 14.3605C121.522 14.983 121.653 15.6511 121.647 16.3249C121.653 16.9999 121.525 17.6693 121.27 18.2942C121.015 18.9191 120.638 19.4871 120.162 19.9652ZM113.91 19.149C114.253 19.5065 114.667 19.7884 115.125 19.9767C115.583 20.1651 116.075 20.2557 116.571 20.2427C117.065 20.2527 117.557 20.1607 118.015 19.9726C118.472 19.7844 118.887 19.5041 119.231 19.149C119.591 18.7741 119.871 18.3311 120.056 17.846C120.241 17.361 120.327 16.8438 120.309 16.3249C120.326 15.8087 120.239 15.2943 120.054 14.8121C119.869 14.3299 119.589 13.8896 119.231 13.5172C118.887 13.1621 118.472 12.8818 118.015 12.6936C117.557 12.5055 117.065 12.4135 116.571 12.4235C116.075 12.4106 115.583 12.5011 115.125 12.6895C114.667 12.8778 114.253 13.1597 113.91 13.5172C113.547 13.8866 113.262 14.326 113.074 14.8087C112.886 15.2914 112.798 15.8072 112.816 16.3249C112.796 16.8454 112.883 17.3643 113.071 17.85C113.259 18.3356 113.545 18.7777 113.91 19.149Z" fill="black" stroke="black" stroke-width="0.2" stroke-miterlimit="10"/>
<path d="M123.361 21.2217V11.4272H124.912L129.679 19.0506V17.157V11.4272H130.936V21.2217H129.613L124.635 13.2392V15.1328V21.2217H123.361Z" fill="black" stroke="black" stroke-width="0.2" stroke-miterlimit="10"/>
<path d="M111.216 35.5214C110.298 35.5038 109.386 35.6709 108.535 36.0129C107.683 36.3549 106.909 36.8648 106.259 37.5121C105.609 38.1594 105.095 38.931 104.749 39.7809C104.403 40.6308 104.232 41.5416 104.245 42.4591C104.234 43.376 104.407 44.2858 104.754 45.1347C105.101 45.9835 105.614 46.7542 106.264 47.4011C106.914 48.0479 107.687 48.5578 108.538 48.9007C109.388 49.2435 110.299 49.4122 111.216 49.3968C112.132 49.4122 113.043 49.2435 113.893 48.9007C114.744 48.5578 115.517 48.0479 116.167 47.4011C116.817 46.7542 117.33 45.9835 117.677 45.1347C118.024 44.2858 118.197 43.376 118.186 42.4591C118.199 41.5416 118.028 40.6308 117.682 39.7809C117.336 38.931 116.822 38.1594 116.172 37.5121C115.522 36.8648 114.748 36.3549 113.896 36.0129C113.045 35.6709 112.133 35.5038 111.216 35.5214ZM111.216 46.6707C110.68 46.6583 110.152 46.5387 109.663 46.3189C109.174 46.0992 108.733 45.7837 108.368 45.3912C108.003 44.9987 107.72 44.537 107.536 44.0334C107.353 43.5299 107.271 42.9946 107.298 42.4591C107.269 41.9231 107.349 41.3869 107.532 40.8823C107.715 40.3777 107.998 39.9152 108.363 39.5222C108.729 39.1292 109.17 38.8138 109.66 38.5948C110.15 38.3758 110.679 38.2577 111.216 38.2475C111.751 38.2598 112.278 38.3795 112.766 38.5995C113.254 38.8194 113.693 39.1352 114.057 39.5279C114.421 39.9207 114.702 40.3825 114.884 40.886C115.066 41.3895 115.146 41.9245 115.117 42.4591C115.143 42.9932 115.063 43.5272 114.88 44.0297C114.697 44.5322 114.415 44.9932 114.052 45.3855C113.689 45.7778 113.251 46.0935 112.763 46.3143C112.276 46.535 111.75 46.6561 111.216 46.6707ZM96.0178 35.5214C95.0963 35.4971 94.1794 35.6593 93.3221 35.9983C92.4649 36.3373 91.685 36.8461 91.0294 37.4941C90.3738 38.1421 89.8559 38.916 89.5069 39.7692C89.1579 40.6224 88.9849 41.5374 88.9984 42.4591C88.9874 43.376 89.1604 44.2858 89.5072 45.1347C89.854 45.9835 90.3675 46.7542 91.0174 47.4011C91.6674 48.0479 92.4404 48.5578 93.2909 48.9007C94.1414 49.2435 95.052 49.4122 95.9688 49.3968C96.8857 49.4122 97.7963 49.2435 98.6467 48.9007C99.4972 48.5578 100.27 48.0479 100.92 47.4011C101.57 46.7542 102.084 45.9835 102.43 45.1347C102.777 44.2858 102.95 43.376 102.939 42.4591C102.952 41.5458 102.782 40.6391 102.439 39.7925C102.096 38.9459 101.587 38.1766 100.942 37.5299C100.297 36.8833 99.529 36.3724 98.6833 36.0274C97.8375 35.6824 96.9312 35.5104 96.0178 35.5214ZM96.0178 46.6707C95.4818 46.6583 94.9538 46.5387 94.4648 46.3189C93.9758 46.0992 93.5358 45.7837 93.1706 45.3912C92.8055 44.9987 92.5227 44.537 92.3388 44.0334C92.1549 43.5299 92.0737 42.9946 92.1 42.4591C92.0714 41.9231 92.151 41.3869 92.3341 40.8823C92.5171 40.3777 92.7999 39.9152 93.1654 39.5222C93.531 39.1292 93.972 38.8138 94.462 38.5948C94.952 38.3758 95.4811 38.2577 96.0178 38.2475C96.5544 38.2577 97.0835 38.3758 97.5736 38.5948C98.0636 38.8138 98.5046 39.1292 98.8702 39.5222C99.2357 39.9152 99.5185 40.3777 99.7015 40.8823C99.8845 41.3869 99.9641 41.9231 99.9356 42.4591C99.9619 42.9946 99.8807 43.5299 99.6968 44.0334C99.5129 44.537 99.2301 44.9987 98.8649 45.3912C98.4998 45.7837 98.0598 46.0992 97.5708 46.3189C97.0818 46.5387 96.5538 46.6583 96.0178 46.6707ZM77.9307 37.6435V40.5818H84.9827C84.8682 41.9696 84.2937 43.2795 83.3503 44.3037C82.6399 45.0204 81.7886 45.5819 80.8501 45.9528C79.9117 46.3236 78.9065 46.4959 77.8981 46.4585C76.8737 46.4586 75.8594 46.2552 74.9142 45.8603C73.969 45.4653 73.1116 44.8866 72.3918 44.1577C71.672 43.4288 71.1041 42.5642 70.7211 41.6141C70.3381 40.664 70.1475 39.6473 70.1605 38.6229C70.1475 37.5986 70.3381 36.5819 70.7211 35.6318C71.1041 34.6817 71.672 33.8171 72.3918 33.0882C73.1116 32.3593 73.969 31.7806 74.9142 31.3856C75.8594 30.9906 76.8737 30.7873 77.8981 30.7874C79.8721 30.761 81.7775 31.5114 83.2034 32.8769L85.2929 30.8037C84.3194 29.8422 83.1641 29.0842 81.8944 28.5741C80.6248 28.064 79.2662 27.812 77.8981 27.8327C75.0226 27.8325 72.2628 28.9646 70.2158 30.984C68.1689 33.0035 66.9996 35.7478 66.9609 38.6229C66.9996 41.4966 68.1695 44.2392 70.2169 46.2561C72.2643 48.2729 75.0241 49.4014 77.8981 49.3968C79.2953 49.46 80.6899 49.2231 81.988 48.7022C83.286 48.1813 84.4575 47.3884 85.4235 46.3769C87.1337 44.4979 88.0468 42.0278 87.97 39.4881C87.9798 38.8692 87.9251 38.251 87.8068 37.6435H77.9307ZM151.895 39.9289C151.467 38.6794 150.669 37.5893 149.609 36.8024C148.548 36.0155 147.273 35.5688 145.953 35.5214C145.06 35.5196 144.176 35.701 143.356 36.0544C142.536 36.4078 141.797 36.9256 141.185 37.5758C140.574 38.226 140.101 38.9949 139.798 39.8348C139.495 40.6748 139.368 41.5679 139.424 42.4591C139.404 43.3715 139.568 44.2785 139.906 45.126C140.245 45.9734 140.751 46.744 141.394 47.3915C142.037 48.0391 142.804 48.5505 143.649 48.895C144.494 49.2395 145.4 49.4102 146.312 49.3968C147.454 49.403 148.58 49.1259 149.588 48.5903C150.597 48.0547 151.457 47.2774 152.091 46.3279L149.724 44.6955C149.372 45.2855 148.872 45.7736 148.274 46.1114C147.675 46.4492 146.999 46.6251 146.312 46.6217C145.598 46.6628 144.888 46.4887 144.274 46.122C143.66 45.7553 143.17 45.2129 142.868 44.5649L152.156 40.7287L151.895 39.9289ZM142.427 42.2469C142.394 41.7353 142.465 41.2224 142.635 40.7388C142.805 40.2552 143.071 39.811 143.417 39.4329C143.763 39.0548 144.182 38.7505 144.649 38.5384C145.115 38.3262 145.62 38.2106 146.133 38.1985C146.659 38.1638 147.184 38.2846 147.643 38.5458C148.101 38.8069 148.473 39.1971 148.712 39.6677L142.427 42.2469ZM134.869 48.9724H137.971V28.6163H134.869V48.9724ZM129.809 37.0722C129.353 36.5528 128.79 36.1381 128.159 35.8564C127.528 35.5746 126.843 35.4325 126.152 35.4397C124.354 35.4994 122.65 36.2603 121.405 37.5599C120.161 38.8594 119.474 40.5944 119.492 42.3938C119.478 44.1888 120.167 45.9178 121.412 47.2113C122.657 48.5047 124.358 49.2598 126.152 49.3152C126.844 49.3291 127.531 49.19 128.163 48.9078C128.795 48.6256 129.357 48.2073 129.809 47.6828V48.6949C129.884 49.2155 129.843 49.7463 129.689 50.2492C129.535 50.752 129.271 51.2145 128.917 51.6032C128.562 51.9919 128.126 52.2972 127.64 52.4972C127.153 52.6971 126.628 52.7868 126.103 52.7596C125.342 52.7418 124.603 52.4979 123.981 52.0589C123.359 51.62 122.882 51.0058 122.61 50.2947L120.014 51.47C120.519 52.6858 121.373 53.7243 122.469 54.4538C123.564 55.1833 124.852 55.5708 126.168 55.5673C129.743 55.5673 132.698 53.4615 132.698 48.3358V35.8642H129.809V37.0722ZM126.381 46.6707C125.849 46.6562 125.325 46.5354 124.841 46.3153C124.357 46.0952 123.922 45.7804 123.561 45.3893C123.2 44.9983 122.922 44.539 122.742 44.0385C122.561 43.5381 122.483 43.0066 122.512 42.4754C122.483 41.9426 122.561 41.4095 122.741 40.9072C122.921 40.4049 123.199 39.9434 123.559 39.5498C123.919 39.1562 124.354 38.8383 124.839 38.6147C125.323 38.3911 125.847 38.2663 126.381 38.2475C126.904 38.2742 127.417 38.4057 127.889 38.6342C128.361 38.8627 128.782 39.1836 129.127 39.5779C129.473 39.9722 129.736 40.4317 129.901 40.9295C130.065 41.4272 130.128 41.9529 130.086 42.4754C130.128 42.9963 130.065 43.5203 129.9 44.0162C129.735 44.512 129.472 44.9695 129.126 45.3612C128.78 45.7528 128.358 46.0707 127.887 46.2957C127.415 46.5207 126.903 46.6483 126.381 46.6707ZM166.179 28.6163H158.882V49.0214H161.934V41.3001H166.179C167.908 41.344 169.584 40.7 170.839 39.5094C172.093 38.3189 172.825 36.6791 172.872 34.95C172.82 33.2238 172.087 31.5882 170.833 30.4012C169.579 29.2141 167.905 28.5723 166.179 28.6163ZM166.179 38.4107H161.853V31.4077H166.179C167.115 31.399 168.017 31.7616 168.687 32.4163C169.357 33.071 169.741 33.9644 169.754 34.9011C169.741 35.8252 169.369 36.7081 168.718 37.3631C168.066 38.0182 167.184 38.3939 166.26 38.4107H166.179ZM185 35.4724C183.888 35.4095 182.781 35.6726 181.815 36.2293C180.85 36.7859 180.067 37.6121 179.564 38.6066L182.274 39.733C182.54 39.2392 182.944 38.8339 183.437 38.567C183.93 38.3001 184.491 38.1834 185.049 38.2312C185.437 38.1859 185.829 38.2183 186.204 38.3264C186.579 38.4345 186.929 38.6162 187.233 38.8608C187.537 39.1055 187.789 39.4082 187.974 39.7513C188.16 40.0944 188.276 40.4711 188.314 40.8593V41.0716C187.311 40.5345 186.187 40.2646 185.049 40.288C182.144 40.288 179.173 41.9204 179.173 44.8751C179.201 45.5051 179.356 46.1229 179.628 46.692C179.9 47.2611 180.283 47.77 180.755 48.1885C181.226 48.607 181.777 48.9267 182.375 49.1287C182.972 49.3306 183.604 49.4107 184.233 49.3642C185 49.4118 185.765 49.2519 186.449 48.9015C187.133 48.5511 187.709 48.0229 188.118 47.3727H188.232V49.0051H191.171V41.1858C191.285 37.4966 188.575 35.4724 185.082 35.4724H185ZM184.641 46.6544C183.645 46.6544 182.242 46.1647 182.242 44.924C182.242 43.2916 183.972 42.7529 185.506 42.7529C186.482 42.7211 187.448 42.9583 188.298 43.4386C188.182 44.3121 187.758 45.1157 187.103 45.7051C186.448 46.2945 185.604 46.631 184.723 46.6544H184.641ZM201.912 35.9295L198.419 44.7771H198.37L194.746 35.9295H191.481L196.917 48.2868L193.815 55.1592H196.982L205.356 35.9295H201.912ZM174.471 48.9887H177.524V28.6163H174.471V48.9887Z" fill="black"/>
<path d="M17.0263 12.2918C16.4902 12.9344 16.2214 13.7584 16.2753 14.5935V50.686C16.2214 51.5211 16.4902 52.3451 17.0263 52.9877L17.1732 53.102L37.366 32.8928V32.4194L17.1732 12.1938L17.0263 12.2918Z" fill="url(#paint0_linear_241_5377)"/>
<path d="M44.1081 39.6333L37.3662 32.8915V32.4181L44.1244 25.6763H44.2713L52.2538 30.247C54.5391 31.5529 54.5391 33.6587 52.2538 34.9647L44.2713 39.5517L44.1081 39.6333Z" fill="url(#paint1_linear_241_5377)"/>
<path d="M44.2712 39.553L37.3662 32.6479L17.0264 53.0041C17.4918 53.4208 18.0898 53.6592 18.7143 53.6771C19.3388 53.6951 19.9495 53.4913 20.4381 53.102L44.2712 39.553Z" fill="url(#paint2_linear_241_5377)"/>
<path d="M44.2705 25.7574L20.4374 12.2901C19.95 11.9051 19.3427 11.7039 18.7219 11.7218C18.1011 11.7397 17.5064 11.9756 17.042 12.388L37.3655 32.6462L44.2705 25.7574Z" fill="url(#paint3_linear_241_5377)"/>
<path opacity="0.2" d="M44.1236 39.4058L20.4374 52.8568C19.9672 53.2117 19.3941 53.4037 18.805 53.4037C18.2159 53.4037 17.6428 53.2117 17.1726 52.8568L17.042 52.9874L17.1726 53.1017C17.6428 53.4565 18.2159 53.6485 18.805 53.6485C19.3941 53.6485 19.9672 53.4565 20.4374 53.1017L44.2705 39.5527L44.1236 39.4058Z" fill="black"/>
<path opacity="0.12" d="M17.0263 52.76C16.4942 52.1215 16.2256 51.3042 16.2753 50.4746V50.7031C16.2214 51.5383 16.4902 52.3622 17.0263 53.0048L17.1568 52.8742L17.0263 52.76Z" fill="black"/>
<path opacity="0.12" d="M52.2538 34.7704L44.0918 39.4064L44.2387 39.5533L52.2212 35.0152C52.675 34.8002 53.0645 34.47 53.3509 34.0576C53.6373 33.6452 53.8106 33.1649 53.8536 32.6646C53.7619 33.113 53.5705 33.5352 53.2936 33.8997C53.0167 34.2642 52.6613 34.5618 52.2538 34.7704Z" fill="black"/>
<path opacity="0.25" d="M20.4374 12.4564L52.2694 30.5435C52.683 30.7483 53.0447 31.0442 53.3275 31.4089C53.6102 31.7736 53.8066 32.1977 53.9018 32.6493C53.8588 32.149 53.6855 31.6687 53.3991 31.2562C53.1127 30.8438 52.7232 30.5136 52.2694 30.2986L20.4374 12.2932C18.1521 11.0036 16.2911 12.081 16.2911 14.6928V14.9214C16.2748 12.2932 18.1357 11.1505 20.4374 12.4564Z" fill="white"/>
<defs>
<linearGradient id="paint0_linear_241_5377" x1="35.5867" y1="14.218" x2="8.1786" y2="41.6261" gradientUnits="userSpaceOnUse">
<stop stop-color="#00A0FF"/>
<stop offset="0.01" stop-color="#00A1FF"/>
<stop offset="0.26" stop-color="#00BEFF"/>
<stop offset="0.51" stop-color="#00D2FF"/>
<stop offset="0.76" stop-color="#00DFFF"/>
<stop offset="1" stop-color="#00E3FF"/>
</linearGradient>
<linearGradient id="paint1_linear_241_5377" x1="55.2247" y1="32.663" x2="15.7205" y2="32.663" gradientUnits="userSpaceOnUse">
<stop stop-color="#FFE000"/>
<stop offset="0.41" stop-color="#FFBD00"/>
<stop offset="0.78" stop-color="#FFA500"/>
<stop offset="1" stop-color="#FF9C00"/>
</linearGradient>
<linearGradient id="paint2_linear_241_5377" x1="40.5167" y1="36.4025" x2="3.37944" y2="73.5561" gradientUnits="userSpaceOnUse">
<stop stop-color="#FF3A44"/>
<stop offset="1" stop-color="#C31162"/>
</linearGradient>
<linearGradient id="paint3_linear_241_5377" x1="11.8999" y1="0.291861" x2="28.5015" y2="16.8771" gradientUnits="userSpaceOnUse">
<stop stop-color="#32A071"/>
<stop offset="0.07" stop-color="#2DA771"/>
<stop offset="0.48" stop-color="#15CF74"/>
<stop offset="0.8" stop-color="#06E775"/>
<stop offset="1" stop-color="#00F076"/>
</linearGradient>
</defs>
</svg>
