<svg width="30" height="30" viewBox="0 0 30 30" fill="none" xmlns="http://www.w3.org/2000/svg">
<path opacity="0.987" fill-rule="evenodd" clip-rule="evenodd" d="M13.6172 -0.0273438C14.5156 -0.0273438 15.4141 -0.0273438 16.3125 -0.0273438C21.5651 0.610619 25.5202 3.20828 28.1777 7.76562C29.156 9.60963 29.7516 11.5627 29.9648 13.625C29.9648 14.5234 29.9648 15.4219 29.9648 16.3203C29.3269 21.5729 26.7292 25.528 22.1719 28.1855C20.3279 29.1638 18.3748 29.7594 16.3125 29.9727C15.4141 29.9727 14.5156 29.9727 13.6172 29.9727C8.36461 29.3347 4.40954 26.7371 1.75195 22.1797C0.773748 20.3357 0.178043 18.3826 -0.0351562 16.3203C-0.0351562 15.4219 -0.0351562 14.5234 -0.0351562 13.625C0.602783 8.37248 3.20044 4.41742 7.75781 1.75977C9.60182 0.781561 11.5549 0.185855 13.6172 -0.0273438ZM6.23438 8.99609C12.0449 8.92777 17.8652 8.91805 23.6953 8.9668C21.0391 11.623 18.3828 14.2793 15.7266 16.9355C15.2187 16.9746 14.711 16.9746 14.2031 16.9355C11.5546 14.2773 8.89834 11.6308 6.23438 8.99609ZM5.47266 9.75781C7.30734 11.5535 9.12375 13.3699 10.9219 15.207C9.1258 17.0324 7.31918 18.8488 5.50195 20.6562C5.47266 17.0235 5.46289 13.3907 5.47266 9.75781ZM24.3984 9.75781C24.4667 13.3808 24.4765 17.0136 24.4277 20.6562C22.6105 18.8488 20.8039 17.0324 19.0078 15.207C20.8059 13.3894 22.6028 11.573 24.3984 9.75781ZM11.6836 15.9688C12.3554 16.6112 13.0194 17.2655 13.6758 17.9316C14.0996 17.998 14.5293 18.0273 14.9648 18.0195C15.4004 18.0273 15.8301 17.998 16.2539 17.9316C16.9082 17.2773 17.5625 16.6231 18.2168 15.9688C19.8867 17.6387 21.5566 19.3086 23.2266 20.9785C17.7188 21.0176 12.2109 21.0176 6.70312 20.9785C8.3751 19.3163 10.0352 17.6464 11.6836 15.9688Z" fill="black"/>
</svg>
